Coordinates
version=1
nRows=17
nColumns=40
inDegrees=yes

Units are S.I. units (second, meters, Newtons, ...)
Angles are in degrees.

endheader
time	pelvis_tilt	pelvis_list	pelvis_rotation	pelvis_tx	pelvis_ty	pelvis_tz	hip_flexion_r	hip_adduction_r	hip_rotation_r	knee_angle_r	knee_angle_r_beta	ankle_angle_r	subtalar_angle_r	mtp_angle_r	hip_flexion_l	hip_adduction_l	hip_rotation_l	knee_angle_l	knee_angle_l_beta	ankle_angle_l	subtalar_angle_l	mtp_angle_l	lumbar_extension	lumbar_bending	lumbar_rotation	arm_flex_r	arm_add_r	arm_rot_r	elbow_flex_r	pro_sup_r	wrist_flex_r	wrist_dev_r	arm_flex_l	arm_add_l	arm_rot_l	elbow_flex_l	pro_sup_l	wrist_flex_l	wrist_dev_l
     10.50000000	     -2.46741007	     26.63389750	     89.06263796	      0.67156308	      1.00742131	     -0.96294862	    -22.67618635	     -8.32641626	      2.82270444	     22.25565786	      0.38843451	     20.96322929	      0.00000000	      0.00000000	      6.75326233	     -0.20933836	    -15.45974961	     63.10371787	      1.10136765	     13.17598434	      0.00000000	      0.00000000	    -46.03444325	     -2.94040295	     14.47161411	     -0.44906133	    -10.19945458	      0.87804868	    137.05094917	     86.31647074	      0.00000000	      0.00000000	     -8.89880513	      2.08825635	     -0.01341245	    137.83184239	     86.07665147	      0.00000000	      0.00000000
     10.51000000	     -2.86029337	     26.13320337	     89.18798220	      0.67122359	      1.01056206	     -0.96264282	    -23.61549146	     -8.71549365	      2.40176603	     20.86451305	      0.36415445	     19.96964719	      0.00000000	      0.00000000	      6.84315089	      0.93242497	    -15.91371249	     60.42662673	      1.05464359	     12.82453774	      0.00000000	      0.00000000	    -45.36306197	     -3.24147846	     14.73300607	     -0.56028736	    -10.45431061	      0.37866884	    137.19469784	     86.32047164	      0.00000000	      0.00000000	     -8.87579310	      2.75118701	     -0.34434649	    137.79047967	     86.05295347	      0.00000000	      0.00000000
     10.52000000	     -3.13921827	     25.75127205	     89.27784802	      0.67074052	      1.01358708	     -0.96213013	    -24.43360354	     -8.97386402	      2.17247811	     19.91098171	      0.34751219	     18.91191337	      0.00000000	      0.00000000	      6.61764862	      2.13234274	    -15.85570103	     57.32498553	      1.00050974	     12.89447643	      0.00000000	      0.00000000	    -44.88358445	     -3.45375770	     14.92404220	     -0.52169867	    -10.77367627	     -0.02542590	    137.38647214	     86.38717334	      0.00000000	      0.00000000	     -8.84243266	      3.27210662	     -0.73704680	    137.84271933	     86.10256306	      0.00000000	      0.00000000
     10.53000000	     -3.29828018	     25.32645366	     89.29927672	      0.67051293	      1.01617131	     -0.96155203	    -24.98980486	     -9.10555837	      2.05246491	     19.28991390	      0.33667251	     17.78827553	      0.00000000	      0.00000000	      6.28603329	      3.25531705	    -15.46222446	     53.96551566	      0.94187593	     12.97004817	      0.00000000	      0.00000000	    -44.37429896	     -3.61263129	     15.16186318	     -0.44957048	    -11.09414995	     -0.38370883	    137.56086466	     86.39156786	      0.00000000	      0.00000000	     -8.70459666	      3.56930989	     -1.08727905	    137.90016510	     86.06312196	      0.00000000	      0.00000000
     10.54000000	     -3.35372529	     24.79073385	     89.29714075	      0.67020536	      1.01814189	     -0.96090289	    -25.13756821	     -9.16794748	      1.77905064	     19.14024874	      0.33406036	     16.72965548	      0.00000000	      0.00000000	      5.96490314	      4.33354627	    -14.64899807	     50.42143138	      0.88001999	     13.10360952	      0.00000000	      0.00000000	    -43.76666827	     -3.67090588	     15.42580152	     -0.35682839	    -11.43335392	     -0.74087186	    137.72290381	     86.38687644	      0.00000000	      0.00000000	     -8.44784945	      3.74320259	     -1.35056170	    137.91893435	     86.00700812	      0.00000000	      0.00000000
     10.55000000	     -2.98075734	     24.18506938	     89.27014770	      0.67015573	      1.01968032	     -0.95981887	    -24.95765861	     -8.66728036	      2.02197004	     19.43645454	      0.33923013	     16.10823988	      0.00000000	      0.00000000	      5.68062377	      4.92043310	    -13.40455103	     46.88408917	      0.81828172	     13.32126777	      0.00000000	      0.00000000	    -43.16440371	     -3.36676115	     15.74665428	     -0.16061118	    -11.87296351	     -0.90979041	    137.74512753	     86.37135198	      0.00000000	      0.00000000	     -8.13518073	      3.82215613	     -1.62570852	    137.88550435	     85.97114618	      0.00000000	      0.00000000
     10.56000000	     -3.33307351	     24.52643059	     89.22662582	      0.67008668	      1.02231298	     -0.96009886	    -25.90919176	     -9.13436944	      1.48665835	     19.62796348	      0.34257259	     15.16138078	      0.00000000	      0.00000000	      3.66587350	      6.36868585	    -12.20735942	     42.26676084	      0.73769414	     13.17276484	      0.00000000	      0.00000000	    -43.40539570	     -3.78910181	     15.82502641	     -0.11687240	    -12.16225631	     -1.04666898	    137.89491371	     86.33959593	      0.00000000	      0.00000000	     -7.91853413	      3.60423971	     -1.78350528	    138.04009452	     85.94745264	      0.00000000	      0.00000000
     10.57000000	     -3.12461543	     24.48866614	     89.15166587	      0.67000428	      1.02369385	     -0.95976612	    -26.07453302	     -8.92946396	      1.34673809	     20.41333129	      0.35627984	     13.99027312	      0.00000000	      0.00000000	      2.14034283	      7.17654159	    -10.46117626	     37.95293396	      0.66240366	     12.96356147	      0.00000000	      0.00000000	    -43.30945120	     -3.66585214	     16.02179576	      0.06261316	    -12.56503259	     -1.09274771	    137.93699481	     86.30590028	      0.00000000	      0.00000000	     -7.63929735	      3.31932305	     -1.86341275	    138.02815503	     85.92268365	      0.00000000	      0.00000000
     10.58000000	     -2.84685017	     24.42362516	     89.00091154	      0.67005587	      1.02446696	     -0.95950403	    -25.93114312	     -8.66632738	      1.39008237	     21.66901851	      0.37819572	     12.86375767	      0.00000000	      0.00000000	      0.50302839	      7.86626952	     -8.41447648	     33.60065429	      0.58644205	     12.40765205	      0.00000000	      0.00000000	    -43.18115862	     -3.54608098	     16.20627869	      0.28512379	    -12.93793689	     -0.98416837	    137.91754560	     86.26193648	      0.00000000	      0.00000000	     -7.33043253	      2.95011236	     -1.88486333	    138.05867362	     85.88638436	      0.00000000	      0.00000000
     10.59000000	     -2.45455674	     24.13873461	     88.75159369	      0.67018509	      1.02428401	     -0.95923006	    -25.08224813	     -8.32613453	      1.60486397	     23.75233483	      0.41455645	     12.20377779	      0.00000000	      0.00000000	     -0.91121247	      8.34234513	     -6.22909436	     29.50657405	      0.51498687	     11.82494083	      0.00000000	      0.00000000	    -42.81356961	     -3.38372009	     16.46610695	      0.46473936	    -13.30190869	     -0.79524418	    137.85943059	     86.22515225	      0.00000000	      0.00000000	     -7.00776380	      2.45323549	     -1.86074947	    138.03976585	     85.86757010	      0.00000000	      0.00000000
     10.60000000	     -2.03901829	     24.08950880	     88.36903481	      0.67048202	      1.02370074	     -0.95935942	    -24.28524166	     -8.03206450	      1.93092542	     26.19661301	      0.45721715	     11.65597111	      0.00000000	      0.00000000	     -2.75038308	      8.65048769	     -4.31498710	     25.46035114	      0.44436696	     11.16915988	      0.00000000	      0.00000000	    -42.63548255	     -3.28071520	     16.71660633	      0.66297176	    -13.62284536	     -0.46765478	    137.81379035	     86.17822321	      0.00000000	      0.00000000	     -6.78707897	      1.85096539	     -1.72710608	    138.10266589	     85.82084910	      0.00000000	      0.00000000
     10.61000000	     -1.29521169	     23.93666937	     87.90093750	      0.67101262	      1.02225220	     -0.95940333	    -23.17675331	     -7.35325354	      2.50326690	     28.91251387	      0.50461856	     10.70992004	      0.00000000	      0.00000000	     -4.40163919	      8.45946137	     -2.46763966	     21.94920397	      0.38308588	     10.73968707	      0.00000000	      0.00000000	    -42.35580640	     -2.92369787	     17.01069609	      0.92938649	    -13.93935358	     -0.00876523	    137.69777178	     86.17742736	      0.00000000	      0.00000000	     -6.61011793	      1.18789063	     -1.52469172	    138.18860897	     85.80169435	      0.00000000	      0.00000000
     10.62000000	     -0.63332911	     23.83156518	     87.05193237	      0.67201706	      1.02006345	     -0.95982338	    -21.75397529	     -6.93643763	      3.30338533	     32.22108512	      0.56236402	     10.05247812	      0.00000000	      0.00000000	     -6.17535221	      8.25455980	     -1.46636619	     18.58009434	      0.32428382	     10.05765083	      0.00000000	      0.00000000	    -42.03946709	     -2.89692542	     17.51127948	      1.11917445	    -14.21648803	      0.47682988	    137.61831018	     86.15327187	      0.00000000	      0.00000000	     -6.50197260	      0.44015019	     -1.27097591	    138.26982305	     85.77822598	      0.00000000	      0.00000000
     10.63000000	      0.10579108	     23.57734787	     86.15886373	      0.67305925	      1.01690455	     -0.96015786	    -19.99450011	     -6.40405653	      4.21870527	     35.81411312	      0.62507419	      9.22030372	      0.00000000	      0.00000000	     -7.53847515	      7.81525439	     -1.32425219	     16.03635655	      0.27988722	      9.13173920	      0.00000000	      0.00000000	    -41.56986545	     -2.80566407	     17.97069507	      1.34996554	    -14.44266472	      1.03482927	    137.48704211	     86.14169542	      0.00000000	      0.00000000	     -6.45758880	     -0.32132125	     -1.00801897	    138.35480410	     85.73819491	      0.00000000	      0.00000000
     10.64000000	      0.73601662	     23.08577946	     85.07321550	      0.67420023	      1.01259754	     -0.95983308	    -17.58331675	     -6.01384767	      5.27815729	     39.93994489	      0.69708354	      8.59691016	      0.00000000	      0.00000000	     -8.33136478	      7.46472450	     -2.16419578	     14.45847560	      0.25234800	      8.03034889	      0.00000000	      0.00000000	    -40.92475997	     -2.91755739	     18.50017149	      1.62982543	    -14.67313391	      1.59422091	    137.43840990	     86.13633205	      0.00000000	      0.00000000	     -6.32630761	     -1.09153710	     -0.68908337	    138.45009888	     85.71141799	      0.00000000	      0.00000000
     10.65000000	      0.64700349	     22.49604889	     84.29025128	      0.67460446	      1.00743600	     -0.95903380	    -14.77156532	     -6.42434578	      5.83531982	     44.42477749	      0.77535864	      7.83833983	      0.00000000	      0.00000000	     -8.53982706	      8.02962413	     -2.65041054	     14.12731811	      0.24656822	      9.43326368	      0.00000000	      0.00000000	    -40.21869644	     -3.54380004	     18.44604213	      2.04061397	    -14.82018386	      2.22630567	    137.39669830	     86.14784462	      0.00000000	      0.00000000	     -6.19018181	     -2.00067334	     -0.47607964	    138.63926431	     85.65888645	      0.00000000	      0.00000000
     10.66000000	     -0.57360371	     21.86016799	     83.77291009	      0.67479210	      1.00156635	     -0.95722522	    -11.41512278	     -8.16223031	      5.99982915	     49.34143024	      0.86117042	      6.96833111	      0.00000000	      0.00000000	     -7.53051936	      9.76052481	     -3.14070616	     15.89318585	      0.27738842	     12.76609978	      0.00000000	      0.00000000	    -39.49983367	     -5.20506388	     17.76039215	      2.70912503	    -14.75849841	      2.92043662	    137.20698542	     86.16589699	      0.00000000	      0.00000000	     -5.85430662	     -2.97953080	     -0.24097062	    138.85753577	     85.54130093	      0.00000000	      0.00000000
